<mxfile host="app.diagrams.net" agent="Mozilla/5.0 (Windows NT 10.0; Win64; x64) AppleWebKit/537.36 (KHTML, like Gecko) Chrome/127.0.0.0 Safari/537.36" version="24.7.6">
  <diagram id="C5RBs43oDa-KdzZeNtuy" name="Page-1">
    <mxGraphModel dx="1050" dy="530" grid="1" gridSize="10" guides="1" tooltips="1" connect="1" arrows="1" fold="1" page="1" pageScale="1" pageWidth="827" pageHeight="1169" math="0" shadow="0">
      <root>
        <mxCell id="WIyWlLk6GJQsqaUBKTNV-0" />
        <mxCell id="WIyWlLk6GJQsqaUBKTNV-1" parent="WIyWlLk6GJQsqaUBKTNV-0" />
        <mxCell id="A_inkFMGVLm-Xrk6xAE0-0" value="" style="rounded=1;whiteSpace=wrap;html=1;fillColor=#f8cecc;strokeColor=#b85450;align=right;" parent="WIyWlLk6GJQsqaUBKTNV-1" vertex="1">
          <mxGeometry x="120" y="230" width="170" height="290" as="geometry" />
        </mxCell>
        <mxCell id="A_inkFMGVLm-Xrk6xAE0-1" value="" style="rounded=1;whiteSpace=wrap;html=1;fillColor=#f8cecc;strokeColor=#b85450;" parent="WIyWlLk6GJQsqaUBKTNV-1" vertex="1">
          <mxGeometry x="320" y="230" width="170" height="290" as="geometry" />
        </mxCell>
        <mxCell id="A_inkFMGVLm-Xrk6xAE0-2" value="" style="rounded=1;whiteSpace=wrap;html=1;fillColor=#f8cecc;strokeColor=#b85450;" parent="WIyWlLk6GJQsqaUBKTNV-1" vertex="1">
          <mxGeometry x="520" y="230" width="170" height="290" as="geometry" />
        </mxCell>
        <mxCell id="A_inkFMGVLm-Xrk6xAE0-3" value="别名数据维表" style="shape=dataStorage;whiteSpace=wrap;html=1;fixedSize=1;fillColor=#b0e3e6;strokeColor=#0e8088;" parent="WIyWlLk6GJQsqaUBKTNV-1" vertex="1">
          <mxGeometry x="171.5" y="630" width="129" height="40" as="geometry" />
        </mxCell>
        <mxCell id="A_inkFMGVLm-Xrk6xAE0-5" value="&lt;font style=&quot;font-size: 14px;&quot;&gt;数据ETL&lt;/font&gt;" style="text;strokeColor=none;fillColor=none;html=1;fontSize=24;fontStyle=1;verticalAlign=middle;align=center;" parent="WIyWlLk6GJQsqaUBKTNV-1" vertex="1">
          <mxGeometry x="351" y="680" width="109" height="20" as="geometry" />
        </mxCell>
        <mxCell id="A_inkFMGVLm-Xrk6xAE0-6" value="黑名单数据维表" style="shape=dataStorage;whiteSpace=wrap;html=1;fixedSize=1;fillColor=#fad7ac;strokeColor=#b46504;" parent="WIyWlLk6GJQsqaUBKTNV-1" vertex="1">
          <mxGeometry x="330.5" y="630" width="129.5" height="40" as="geometry" />
        </mxCell>
        <mxCell id="A_inkFMGVLm-Xrk6xAE0-7" value="" style="endArrow=none;dashed=1;html=1;dashPattern=1 3;strokeWidth=2;rounded=0;" parent="WIyWlLk6GJQsqaUBKTNV-1" edge="1">
          <mxGeometry width="50" height="50" relative="1" as="geometry">
            <mxPoint x="120" y="711" as="sourcePoint" />
            <mxPoint x="740.5" y="611" as="targetPoint" />
            <Array as="points">
              <mxPoint x="120" y="610" />
            </Array>
          </mxGeometry>
        </mxCell>
        <mxCell id="A_inkFMGVLm-Xrk6xAE0-8" value="" style="endArrow=none;dashed=1;html=1;dashPattern=1 3;strokeWidth=2;rounded=0;" parent="WIyWlLk6GJQsqaUBKTNV-1" edge="1">
          <mxGeometry width="50" height="50" relative="1" as="geometry">
            <mxPoint x="738.5" y="620" as="sourcePoint" />
            <mxPoint x="120.5" y="715" as="targetPoint" />
            <Array as="points">
              <mxPoint x="738.5" y="715" />
            </Array>
          </mxGeometry>
        </mxCell>
        <mxCell id="A_inkFMGVLm-Xrk6xAE0-10" value="" style="shape=flexArrow;endArrow=classic;startArrow=classic;html=1;rounded=0;exitX=0.472;exitY=0.96;exitDx=0;exitDy=0;exitPerimeter=0;" parent="WIyWlLk6GJQsqaUBKTNV-1" edge="1" source="YkLq_sm4jCXFbLihLAIw-5">
          <mxGeometry width="100" height="100" relative="1" as="geometry">
            <mxPoint x="413" y="550" as="sourcePoint" />
            <mxPoint x="413" y="610" as="targetPoint" />
          </mxGeometry>
        </mxCell>
        <mxCell id="A_inkFMGVLm-Xrk6xAE0-11" value="数据定期同步" style="text;html=1;align=center;verticalAlign=middle;whiteSpace=wrap;rounded=0;" parent="WIyWlLk6GJQsqaUBKTNV-1" vertex="1">
          <mxGeometry x="450" y="570" width="74" height="30" as="geometry" />
        </mxCell>
        <mxCell id="A_inkFMGVLm-Xrk6xAE0-13" value="标准配置文件" style="shape=document;whiteSpace=wrap;html=1;boundedLbl=1;" parent="WIyWlLk6GJQsqaUBKTNV-1" vertex="1">
          <mxGeometry x="30" y="300" width="80" height="45" as="geometry" />
        </mxCell>
        <mxCell id="A_inkFMGVLm-Xrk6xAE0-14" value="ISBN校验转换组件" style="shape=ext;double=1;rounded=1;whiteSpace=wrap;html=1;fillColor=#bac8d3;strokeColor=#23445d;glass=0;shadow=0;" parent="WIyWlLk6GJQsqaUBKTNV-1" vertex="1">
          <mxGeometry x="140" y="460" width="140" height="30" as="geometry" />
        </mxCell>
        <mxCell id="A_inkFMGVLm-Xrk6xAE0-15" value="内容相似算法" style="shape=ext;double=1;rounded=1;whiteSpace=wrap;html=1;fillColor=#bac8d3;strokeColor=#23445d;glass=0;shadow=0;" parent="WIyWlLk6GJQsqaUBKTNV-1" vertex="1">
          <mxGeometry x="330" y="460" width="150" height="30" as="geometry" />
        </mxCell>
        <mxCell id="A_inkFMGVLm-Xrk6xAE0-16" value="大模型实体识别组件" style="shape=ext;double=1;rounded=1;whiteSpace=wrap;html=1;fillColor=#bac8d3;strokeColor=#23445d;glass=0;shadow=0;" parent="WIyWlLk6GJQsqaUBKTNV-1" vertex="1">
          <mxGeometry x="140" y="410" width="140" height="30" as="geometry" />
        </mxCell>
        <mxCell id="A_inkFMGVLm-Xrk6xAE0-17" value="人工规则实体识别组件" style="shape=ext;double=1;rounded=1;whiteSpace=wrap;html=1;fillColor=#bac8d3;strokeColor=#23445d;glass=0;shadow=0;" parent="WIyWlLk6GJQsqaUBKTNV-1" vertex="1">
          <mxGeometry x="140" y="360" width="140" height="30" as="geometry" />
        </mxCell>
        <mxCell id="A_inkFMGVLm-Xrk6xAE0-18" value="大文娱业务字段清洗组件" style="shape=ext;double=1;rounded=1;whiteSpace=wrap;html=1;fillColor=#bac8d3;strokeColor=#23445d;glass=0;shadow=0;" parent="WIyWlLk6GJQsqaUBKTNV-1" vertex="1">
          <mxGeometry x="140" y="310" width="140" height="30" as="geometry" />
        </mxCell>
        <mxCell id="A_inkFMGVLm-Xrk6xAE0-20" value="MR引擎计算" style="rounded=0;whiteSpace=wrap;html=1;fillColor=#f5f5f5;fontColor=#333333;strokeColor=#666666;" parent="WIyWlLk6GJQsqaUBKTNV-1" vertex="1">
          <mxGeometry x="700" y="230" width="40" height="140" as="geometry" />
        </mxCell>
        <mxCell id="A_inkFMGVLm-Xrk6xAE0-21" value="基于ISBN的内容聚合算法" style="shape=ext;double=1;rounded=1;whiteSpace=wrap;html=1;fillColor=#bac8d3;strokeColor=#23445d;glass=0;shadow=0;" parent="WIyWlLk6GJQsqaUBKTNV-1" vertex="1">
          <mxGeometry x="329.5" y="410" width="150" height="30" as="geometry" />
        </mxCell>
        <mxCell id="YkLq_sm4jCXFbLihLAIw-0" value="&lt;span style=&quot;text-wrap: wrap;&quot;&gt;数据治理&lt;/span&gt;" style="text;html=1;align=center;verticalAlign=middle;resizable=0;points=[];autosize=1;strokeColor=none;fillColor=none;" vertex="1" parent="WIyWlLk6GJQsqaUBKTNV-1">
          <mxGeometry x="680.5" y="670" width="70" height="30" as="geometry" />
        </mxCell>
        <mxCell id="YkLq_sm4jCXFbLihLAIw-2" value="基于唯一ID的内容聚合算法" style="shape=ext;double=1;rounded=1;whiteSpace=wrap;html=1;fillColor=#bac8d3;strokeColor=#23445d;glass=0;shadow=0;" vertex="1" parent="WIyWlLk6GJQsqaUBKTNV-1">
          <mxGeometry x="329.5" y="360" width="150" height="30" as="geometry" />
        </mxCell>
        <mxCell id="YkLq_sm4jCXFbLihLAIw-3" value="内存计算" style="rounded=0;whiteSpace=wrap;html=1;fillColor=#f5f5f5;fontColor=#333333;strokeColor=#666666;" vertex="1" parent="WIyWlLk6GJQsqaUBKTNV-1">
          <mxGeometry x="700" y="380" width="40" height="140" as="geometry" />
        </mxCell>
        <mxCell id="YkLq_sm4jCXFbLihLAIw-4" value="平台数据源" style="shape=dataStorage;whiteSpace=wrap;html=1;fixedSize=1;fillColor=#f5f5f5;strokeColor=#666666;fontColor=#333333;" vertex="1" parent="WIyWlLk6GJQsqaUBKTNV-1">
          <mxGeometry x="490.5" y="630" width="129.5" height="40" as="geometry" />
        </mxCell>
        <mxCell id="YkLq_sm4jCXFbLihLAIw-5" value="数据加密" style="rounded=0;whiteSpace=wrap;html=1;fillColor=#dae8fc;strokeColor=#6c8ebf;" vertex="1" parent="WIyWlLk6GJQsqaUBKTNV-1">
          <mxGeometry x="119" y="530" width="621" height="30" as="geometry" />
        </mxCell>
        <mxCell id="YkLq_sm4jCXFbLihLAIw-6" value="内容名最长精准匹配算法" style="shape=ext;double=1;rounded=1;whiteSpace=wrap;html=1;fillColor=#bac8d3;strokeColor=#23445d;glass=0;shadow=0;" vertex="1" parent="WIyWlLk6GJQsqaUBKTNV-1">
          <mxGeometry x="530" y="460" width="150" height="30" as="geometry" />
        </mxCell>
        <mxCell id="YkLq_sm4jCXFbLihLAIw-7" value="内容名分块精准匹配算法" style="shape=ext;double=1;rounded=1;whiteSpace=wrap;html=1;fillColor=#bac8d3;strokeColor=#23445d;glass=0;shadow=0;" vertex="1" parent="WIyWlLk6GJQsqaUBKTNV-1">
          <mxGeometry x="530" y="410" width="150" height="30" as="geometry" />
        </mxCell>
        <mxCell id="YkLq_sm4jCXFbLihLAIw-8" value="内容名分块模糊匹配算法" style="shape=ext;double=1;rounded=1;whiteSpace=wrap;html=1;fillColor=#bac8d3;strokeColor=#23445d;glass=0;shadow=0;" vertex="1" parent="WIyWlLk6GJQsqaUBKTNV-1">
          <mxGeometry x="530" y="360" width="150" height="30" as="geometry" />
        </mxCell>
        <mxCell id="YkLq_sm4jCXFbLihLAIw-9" value="内容名最长模糊匹配算法" style="shape=ext;double=1;rounded=1;whiteSpace=wrap;html=1;fillColor=#bac8d3;strokeColor=#23445d;glass=0;shadow=0;" vertex="1" parent="WIyWlLk6GJQsqaUBKTNV-1">
          <mxGeometry x="530" y="310" width="150" height="30" as="geometry" />
        </mxCell>
        <mxCell id="YkLq_sm4jCXFbLihLAIw-10" value="内容相似算法" style="shape=ext;double=1;rounded=1;whiteSpace=wrap;html=1;fillColor=#bac8d3;strokeColor=#23445d;glass=0;shadow=0;" vertex="1" parent="WIyWlLk6GJQsqaUBKTNV-1">
          <mxGeometry x="330" y="310" width="150" height="30" as="geometry" />
        </mxCell>
        <mxCell id="YkLq_sm4jCXFbLihLAIw-11" value="数据加密" style="rounded=0;whiteSpace=wrap;html=1;fillColor=#dae8fc;strokeColor=#6c8ebf;" vertex="1" parent="WIyWlLk6GJQsqaUBKTNV-1">
          <mxGeometry x="119.5" y="190" width="620.5" height="30" as="geometry" />
        </mxCell>
        <mxCell id="YkLq_sm4jCXFbLihLAIw-14" value="" style="endArrow=classic;startArrow=classic;html=1;rounded=0;exitX=1;exitY=0.5;exitDx=0;exitDy=0;entryX=0;entryY=0.5;entryDx=0;entryDy=0;" edge="1" parent="WIyWlLk6GJQsqaUBKTNV-1" source="A_inkFMGVLm-Xrk6xAE0-0" target="A_inkFMGVLm-Xrk6xAE0-1">
          <mxGeometry width="50" height="50" relative="1" as="geometry">
            <mxPoint x="380" y="510" as="sourcePoint" />
            <mxPoint x="430" y="460" as="targetPoint" />
          </mxGeometry>
        </mxCell>
        <mxCell id="YkLq_sm4jCXFbLihLAIw-15" value="" style="endArrow=classic;startArrow=classic;html=1;rounded=0;exitX=1;exitY=0.5;exitDx=0;exitDy=0;entryX=0;entryY=0.5;entryDx=0;entryDy=0;" edge="1" parent="WIyWlLk6GJQsqaUBKTNV-1" source="A_inkFMGVLm-Xrk6xAE0-1" target="A_inkFMGVLm-Xrk6xAE0-2">
          <mxGeometry width="50" height="50" relative="1" as="geometry">
            <mxPoint x="380" y="340" as="sourcePoint" />
            <mxPoint x="430" y="290" as="targetPoint" />
          </mxGeometry>
        </mxCell>
        <mxCell id="YkLq_sm4jCXFbLihLAIw-16" value="内容清洗模块" style="text;html=1;align=center;verticalAlign=middle;whiteSpace=wrap;rounded=0;" vertex="1" parent="WIyWlLk6GJQsqaUBKTNV-1">
          <mxGeometry x="163.25" y="240" width="90" height="30" as="geometry" />
        </mxCell>
        <mxCell id="YkLq_sm4jCXFbLihLAIw-17" value="内容聚合模块" style="text;html=1;align=center;verticalAlign=middle;whiteSpace=wrap;rounded=0;" vertex="1" parent="WIyWlLk6GJQsqaUBKTNV-1">
          <mxGeometry x="360" y="240" width="90" height="30" as="geometry" />
        </mxCell>
        <mxCell id="YkLq_sm4jCXFbLihLAIw-18" value="内容对齐模块" style="text;html=1;align=center;verticalAlign=middle;whiteSpace=wrap;rounded=0;" vertex="1" parent="WIyWlLk6GJQsqaUBKTNV-1">
          <mxGeometry x="560" y="240" width="90" height="30" as="geometry" />
        </mxCell>
        <mxCell id="YkLq_sm4jCXFbLihLAIw-19" value="自定义配置文件" style="shape=document;whiteSpace=wrap;html=1;boundedLbl=1;" vertex="1" parent="WIyWlLk6GJQsqaUBKTNV-1">
          <mxGeometry x="30" y="360" width="80" height="50" as="geometry" />
        </mxCell>
        <mxCell id="YkLq_sm4jCXFbLihLAIw-20" value="&lt;p style=&quot;margin:0px;margin-top:4px;text-align:center;&quot;&gt;&lt;b&gt;Interface&lt;/b&gt;&lt;/p&gt;&lt;hr size=&quot;1&quot; style=&quot;border-style:solid;&quot;&gt;&lt;p style=&quot;margin:0px;margin-left:4px;&quot;&gt;+ field1: Type&lt;br&gt;+ field2: Type&lt;/p&gt;&lt;hr size=&quot;1&quot; style=&quot;border-style:solid;&quot;&gt;&lt;p style=&quot;margin:0px;margin-left:4px;&quot;&gt;+ method1(Type): Type&lt;br&gt;+ method2(Type, Type): Type&lt;/p&gt;" style="verticalAlign=top;align=left;overflow=fill;html=1;whiteSpace=wrap;fillColor=#f5f5f5;fontColor=#333333;strokeColor=#666666;" vertex="1" parent="WIyWlLk6GJQsqaUBKTNV-1">
          <mxGeometry x="120" y="70" width="620" height="110" as="geometry" />
        </mxCell>
      </root>
    </mxGraphModel>
  </diagram>
</mxfile>
